<?xml version="1.0" encoding="UTF-8"?>
<svg width="512px" height="512px" viewBox="0 0 512 512" version="1.1" xmlns="http://www.w3.org/2000/svg" xmlns:xlink="http://www.w3.org/1999/xlink">
    <title>restflow</title>
    <defs>
        <linearGradient x1="95.9743576%" y1="41.9880438%" x2="50%" y2="100%" id="linearGradient-1">
            <stop stop-color="#140C0F" offset="0%"></stop>
            <stop stop-color="#0B0B0B" offset="100%"></stop>
        </linearGradient>
        <path d="M124,0 L388,0 C456.483309,-1.42108547e-14 512,55.516691 512,124 L512,388 C512,456.483309 456.483309,512 388,512 L124,512 C55.516691,512 0,456.483309 0,388 L0,124 C-1.42108547e-14,55.516691 55.516691,1.42108547e-14 124,0 Z" id="path-2"></path>
        <linearGradient x1="50%" y1="0%" x2="50%" y2="100%" id="linearGradient-3">
            <stop stop-color="#F4D0D0" offset="0%"></stop>
            <stop stop-color="#F6C8FD" offset="100%"></stop>
        </linearGradient>
    </defs>
    <g id="restflow" stroke="none" fill="none" xlink:href="#path-2" fill-rule="evenodd">
        <use fill="url(#linearGradient-1)" xlink:href="#path-2"></use>
        <path d="M258.339139,264 L297.380963,264 C314.29139,264 328,277.70861 328,294.619037 L328,308.262754 C328,324.67562 315.05868,338.169374 298.660143,338.855059 L257.473689,340.57722 C252.658057,340.77858 247.957978,342.113947 243.755857,344.474675 L152.693938,395.632735 C142.12722,401.569056 128.748864,397.815377 122.812543,387.24866 C120.968556,383.966341 120,380.264825 120,376.5 L120,356.694514 C120,345.746489 125.845372,335.631508 135.331089,330.165208 L243.051191,268.089731 C247.70074,265.410352 252.972819,264 258.339139,264 Z M351.380963,127 C368.29139,127 382,140.70861 382,157.619037 L382,233.380963 C382,250.29139 368.29139,264 351.380963,264 L346.643035,264 C329.732608,264 316.023998,250.29139 316.023998,233.380963 L316.023998,225.806257 C316.023998,208.89583 302.315388,195.18722 285.404961,195.18722 L253.984204,195.18722 C248.469284,195.18722 243.05674,196.676714 238.318317,199.49836 L176.284923,236.438148 C171.546501,239.259795 166.133957,240.749288 160.619037,240.749288 C143.70861,240.749288 130,227.040678 130,210.130251 L130,157.619037 C130,140.70861 143.70861,127 160.619037,127 Z" id="Combined-Shape" fill="url(#linearGradient-3)"></path>
    </g>
</svg>
